<svg xmlns="http://www.w3.org/2000/svg" width="310" height="65" viewbox="0 0 310 65">
	<path fill="#6AC3AC" d="M122.0171 13.78106c-2.7026.0039-10.6621.9473-20.2407 8.5957l.6504.8398c9.3896-7.2109 16.2671-8.3711 20.1772-8.372a11.83334 11.83334 0 0 1 10.9781 6.6611l.8422-.5879c-1.9428-3.9834-5.6826-7.1465-12.4072-7.1367M86.8389 12.868l-1.1587 1.5977c10.896 7.958 15.148 18.6684 9.8374 24.727-4.2441 4.8477-18.0151 7.6191-33.7773.5332l-.8106 1.8399c14.7241 6.4765 30.3008 5.7929 36.5122-1.4942 3.731-4.3789 5.3028-15.0581-10.603-27.2036M50.8594 25.80746l-3.7227 2.0693c7.1016 13.2808 5.9688 23.0815 1.7696 26.5815-6.7354 5.6114-22.7691-.7988-33.4634-13.3906C4.93751 28.7 1.2974 12.20876 7.93121 6.62235c5.75049-4.84277 16.45259.21631 16.49309.23438l1.8008-4.12109a32.384 32.384 0 0 0-7.7998-2.417C13.1665-.54854 8.43361.33036 5.00741 3.24931c-8.8897 7.56885-5.628 25.92435 7.28609 40.996C25.209 59.31966 42.7451 65.347 51.7793 57.83526c6.0249-5.0098 7.6485-17.0215-.9199-32.0278"/>
	<path d="M122.8994 21.80646a7.29172 7.29172 0 0 0-2.3266-.3018h-7.7417v.8086h.2793c1.4326 0 1.9712.6641 1.9712 2.4502v8.0132c0 1.7851-.5386 2.4473-1.9712 2.4473h-.2793v.8125h7.4604a6.51883 6.51883 0 0 0 3.3111-.5743 3.681 3.681 0 0 0 2.2251-3.3027 3.34848 3.34848 0 0 0-1.3477-2.6841 6.67671 6.67671 0 0 0-3.4844-1.1103c2.8667-.4014 4.2759-1.5127 4.2759-3.3672a3.28654 3.28654 0 0 0-2.3721-3.1914zm-4.0405 6.1299h-1.5137v-5.6231h.9781a6.53448 6.53448 0 0 1 2.373.2822 3.00507 3.00507 0 0 1 1.499 1.1475 3.16276 3.16276 0 0 1 .4263 1.6367 2.246 2.246 0 0 1-1.4741 2.3008 7.39108 7.39108 0 0 1-2.2886.2559zm.0864.9414a5.323 5.323 0 0 1 2.3921.4033 3.33777 3.33777 0 0 1 1.8389 3.0464 2.5744 2.5744 0 0 1-2.7368 2.8359h-.7451c-1.8594 0-2.3492-.5547-2.3492-2.5586v-3.727zm-51.7417-6.5645v-.8086h5.837v.8086l-.2828.0225c-1.0048.0634-1.4516.3838-1.4516.959a4.98781 4.98781 0 0 0 .6411 1.789l2.6938 5.6475c.1495.2949.3833.8755.7461 1.7661.043.1289.1304.3223.2354.5781a2.79534 2.79534 0 0 1 .1694-.4492c.0884-.2305.3672-.8945.8159-1.9829l1.5357-3.6406a10.11319 10.11319 0 0 0 .9643-3.1104c0-.9385-.6206-1.4502-1.8588-1.5791v-.8086H82.27v.8086l-.1298.044a2.4661 2.4661 0 0 0-1.7071 1.5566l-1.3921 3.4766L76.563 33.14a14.15661 14.15661 0 0 0-.9575 3.1308h-1.1553a11.42233 11.42233 0 0 0-.9009-2.4922l-4.4433-9.5874c-.749-1.6191-1.0034-1.8779-1.8174-1.8779zm-30.9502 3.2822h-.9394a3.527 3.527 0 0 0-3.6978-3.4716c-1.4741 0-2.6733.8955-2.6733 2.0039 0 .8095.5137 1.5107 1.603 2.1894.5786.3438 1.2808.7686 2.1612 1.2588 2.2441 1.2813 3.2031 2.0918 3.7612 3.1768a3.46535 3.46535 0 0 1 .3379 1.5122c0 2.3613-2.2212 4.0254-5.3628 4.0254a13.20139 13.20139 0 0 1-4.9146-1.0235l-.1049-3.6601h1.0229c.3447 2.3203 1.7749 3.6425 3.9116 3.6425 1.7515 0 3.1621-1.0488 3.1621-2.3671a2.77517 2.77517 0 0 0-1.5341-2.2154c-.5123-.3613-1.1597-.7451-1.9297-1.1914-2.3023-1.3447-3.1983-2.0508-3.8028-2.9834a3.009 3.009 0 0 1-.4277-1.5752c0-2.1972 1.9888-3.665 4.9604-3.665a8.45644 8.45644 0 0 1 3.1646.6182 7.21936 7.21936 0 0 1 1.3022.5976v3.1279zM156.088 29.618h1.622l1.586 4.147h.026l1.597-4.147h1.525l-2.343 5.924h-1.585l-2.428-5.924m10.79139-.14844a3.113 3.113 0 1 1-3.23439 3.1118 3.07825 3.07825 0 0 1 3.23439-3.1118zm0 4.8891a1.77834 1.77834 0 1 0-1.7461-1.7773 1.72 1.72 0 0 0 1.7461 1.7773zm8.1768-4.8891a3.11293 3.11293 0 1 1-3.2334 3.1118 3.07927 3.07927 0 0 1 3.2334-3.1118zm0 4.8891a1.77831 1.77831 0 1 0-1.7481-1.7773 1.71782 1.71782 0 0 0 1.7481 1.7773zm5.2402-4.74066h1.4863v.9375h.0254a1.89856 1.89856 0 0 1 1.7608-1.0859 1.98 1.98 0 0 1 .5322.0859v1.4316a3.04667 3.04667 0 0 0-.7187-.1103 1.49277 1.49277 0 0 0-1.5997 1.4936v3.1719h-1.4863V29.618m10.5938.82706h.0244a1.86571 1.86571 0 0 1 1.747-.9755 2.06834 2.06834 0 0 1 2.17 2.3325v3.7402h-1.4893v-3c0-.6543-.0478-1.7397-1.0889-1.7397a1.33029 1.33029 0 0 0-1.3632 1.5053v3.2344h-1.4864v-9.3315h1.4864v4.2343m7.4355 2.65394a1.53585 1.53585 0 0 0 1.5967 1.4062 1.957 1.957 0 0 0 1.59861-.8027l1.06639.8027a3.17644 3.17644 0 1 1-2.5156-5.0356c1.66021 0 2.7891 1.1601 2.7891 3.2212v.4082zm3.0459-1.1114a1.36492 1.36492 0 0 0-1.5098-1.4077 1.47635 1.47635 0 0 0-1.5361 1.4077zm2.8027-1.11084V29.618h1.2256v-1.7148h1.4864v1.7148h1.63471v1.2588h-1.63471v2.5913c0 .5937.1738.9629.83.9629a1.537 1.537 0 0 0 .80471-.1856v1.2481a3.18206 3.18206 0 0 1-1.17671.1973c-1.57229 0-1.9444-.7032-1.9444-2.0997v-2.7143h-1.2256m10.1329-4.66604h1.4882v9.3296h-1.4882zM219.314 33.099a1.53823 1.53823 0 0 0 1.59859 1.4062 1.95713 1.95713 0 0 0 1.5987-.8027l1.0634.8027a3.17545 3.17545 0 1 1-2.5146-5.0356c1.6601 0 2.7881 1.1601 2.7881 3.2212v.4082zm3.04779-1.1114a1.36619 1.36619 0 0 0-1.5107-1.4077 1.47716 1.47716 0 0 0-1.53709 1.4077zm2.62621-2.3696h1.623l1.587 4.147h.024l1.599-4.147h1.523l-2.343 5.924h-1.585l-2.428-5.924m8.98319 3.481a1.53677 1.53677 0 0 0 1.5977 1.4062 1.95706 1.95706 0 0 0 1.5986-.8027l1.06451.8027a3.17548 3.17548 0 1 1-2.51471-5.0356c1.6611 0 2.7881 1.1601 2.7881 3.2212v.4082zm3.04881-1.1114a1.36807 1.36807 0 0 0-1.51361-1.4077 1.4761 1.4761 0 0 0-1.5352 1.4077zm3.49319-2.3696h1.4111v.9512h.0254a1.86466 1.86466 0 0 1 1.82231-1.0996 2.06611 2.06611 0 0 1 2.167 2.3325v3.7402h-1.48731v-3c0-.6543-.0498-1.7397-1.0889-1.7397a1.33036 1.33036 0 0 0-1.3633 1.5053v3.2344h-1.4863V29.618m-79.3887 13.27976a1.76435 1.76435 0 0 0-1.5449-.7754c-.8847 0-1.8047.416-1.8047 1.418 0 .7754.4297 1.1211 1.7823 1.5488 1.3154.418 2.5361.8476 2.5361 2.5039 0 1.6816-1.44829 2.4687-2.9805 2.4687a3.07752 3.07752 0 0 1-2.6084-1.1679l.8623-.7051a2.05139 2.05139 0 0 0 1.8076.9434c.8604 0 1.8428-.502 1.8428-1.4668 0-1.0352-.707-1.2149-2.2148-1.7168-1.19529-.3926-2.1055-.918-2.1055-2.3243 0-1.6191 1.3994-2.4316 2.8828-2.4316a2.923 2.923 0 0 1 2.3711.9883l-.8262.7168m5.6358 1.2285a2.93224 2.93224 0 1 1-2.9912 2.9316 2.84736 2.84736 0 0 1 2.9912-2.9316zm0 5.0059a2.07615 2.07615 0 1 0-1.98729-2.0743 1.95072 1.95072 0 0 0 1.98729 2.0743zm8.92771-3.4688a1.72378 1.72378 0 0 0-1.41111-.6797 1.86374 1.86374 0 0 0-1.8926 2.0742 1.93216 1.93216 0 0 0 1.8926 2.0743 1.63334 1.63334 0 0 0 1.4209-.6914l.6963.6562a2.72881 2.72881 0 0 1-2.1172.8926 2.93185 2.93185 0 0 1 0-5.8633 2.846 2.846 0 0 1 2.1523.8828l-.74119.6543m3.25389-4.2558a.68033.68033 0 0 1 .6826.6777.6826.6826 0 0 1-1.3652 0 .681.681 0 0 1 .6826-.6777zm-.4658 2.8613h.9326V49.849h-.9326zm3.2656.7148a3.12419 3.12419 0 0 1 2.2266-.8574c1.6504 0 2.34571.7852 2.34571 2.3574v2.3985a6.21345 6.21345 0 0 0 .083.9668h-.89751a4.09051 4.09051 0 0 1-.0586-.836h-.0253a2.116 2.116 0 0 1-1.8428.9766c-1.13579 0-2.082-.5723-2.082-1.6563 0-1.8496 2.15421-1.955 3.52921-1.955h.36039v-.168c0-.8086-.5146-1.2266-1.3887-1.2266a2.49256 2.49256 0 0 0-1.6631.6074l-.5869-.6074zm2.7051 2.1817c-1.1836 0-1.9512.3203-1.9512 1.0722 0 .7032.52641.9649 1.2315.9649a1.59608 1.59608 0 0 0 1.6533-1.6797v-.3574zm4.2119-6.3301h.9346v9.0137h-.9346zm8.2451 8a2.87748 2.87748 0 0 1-2.4892 1.1543 2.76745 2.76745 0 0 1-2.836-2.9317 2.79783 2.79783 0 0 1 2.8711-2.9316 2.60171 2.60171 0 0 1 2.6582 2.9199v.2989h-4.5224a1.86566 1.86566 0 0 0 1.8291 1.7871 2.09465 2.09465 0 0 0 1.7842-.8457l.705.5488zm-.8017-2.2774a1.55419 1.55419 0 0 0-1.6875-1.5742 1.72751 1.72751 0 0 0-1.8291 1.5742zM201.369 41.408h1.135l2.609 6.937h.024l2.694-6.937h1.063l-3.313 8.441h-.971l-3.241-8.441m13.49679 7.42726a2.87777 2.87777 0 0 1-2.4893 1.1543 2.76794 2.76794 0 0 1-2.8359-2.9317 2.79748 2.79748 0 0 1 2.872-2.9316 2.60158 2.60158 0 0 1 2.6573 2.9199v.2989h-4.5245a1.86957 1.86957 0 0 0 1.8311 1.7871 2.0928 2.0928 0 0 0 1.7832-.8457l.7061.5488zm-.80079-2.2774a1.554 1.554 0 0 0-1.68851-1.5742 1.73129 1.73129 0 0 0-1.8311 1.5742zm3.05169-.9668c0-.5136-.0488-.9531-.0488-1.3222h.8857c0 .2988.0235.6074.0235.9179h.0254a2.03 2.03 0 0 1 1.8652-1.0605 1.13358 1.13358 0 0 1 .3838.0586l-.06149.9434a1.65319 1.65319 0 0 0-.503-.0723c-1.13371 0-1.63671.7988-1.63671 2.0742V49.849h-.9336v-4.2579M221.496 49.12l3.292-4.064h-3.149v-.787h4.367v.715l-3.29 4.076h3.374v.789h-4.594v-.729m11.43909-.28474a2.87537 2.87537 0 0 1-2.4893 1.1543 2.76686 2.76686 0 0 1-2.8359-2.9317 2.79715 2.79715 0 0 1 2.873-2.9316 2.60086 2.60086 0 0 1 2.6563 2.9199v.2989h-4.5244a1.86877 1.86877 0 0 0 1.831 1.7871 2.09382 2.09382 0 0 0 1.78321-.8457l.70609.5488zm-.8018-2.2774a1.5536 1.5536 0 0 0-1.6875-1.5742 1.73056 1.73056 0 0 0-1.831 1.5742zM235.067 40.835h.932v5.889l2.548-2.455h1.329l-2.705 2.539 2.98 3.041h-1.376l-2.776-2.934v2.934h-.932v-9.014m11.44909 8.00026a2.874 2.874 0 0 1-2.4873 1.1543 2.76817 2.76817 0 0 1-2.8369-2.9317 2.79751 2.79751 0 0 1 2.87211-2.9316 2.60271 2.60271 0 0 1 2.65819 2.9199v.2989h-4.5244a1.86878 1.86878 0 0 0 1.831 1.7871 2.09506 2.09506 0 0 0 1.78321-.8457l.70409.5488zm-.8007-2.2774a1.55391 1.55391 0 0 0-1.6866-1.5742 1.73 1.73 0 0 0-1.831 1.5742zm2.9921-.9668c0-.5136-.0478-.9531-.0478-1.3222h.8857c0 .2988.0245.6074.0245.9179h.0224a2.03556 2.03556 0 0 1 1.8672-1.0605 1.13 1.13 0 0 1 .3838.0586l-.0606.9434a1.657 1.657 0 0 0-.5029-.0723c-1.1357 0-1.6387.7988-1.6387 2.0742V49.849h-.9336v-4.2579m5.3614-4.18354a.681.681 0 0 1 .6826.6777.6831.6831 0 0 1-1.3662 0 .68119.68119 0 0 1 .6836-.6777zm-.4678 2.8613h.9346V49.849h-.9346zm3.42191 1.3222c0-.5136-.04691-.9531-.04691-1.3222h.8857c0 .2988.0245.6074.0245.9179h.0224a2.03558 2.03558 0 0 1 1.8672-1.0605 1.99855 1.99855 0 0 1 2.1309 2.2773V49.849h-.9346v-3.3516c0-.9297-.4063-1.5137-1.2803-1.5137-1.208 0-1.7353.8711-1.7353 2.1465v2.7188h-.93359v-4.2579m12.57709 4.00396a2.77908 2.77908 0 0 1-3.0517 3.1132 3.65243 3.65243 0 0 1-2.752-1.0605l.6699-.7637a2.675 2.675 0 0 0 2.0821.9649c1.6748 0 2.1181-1.0723 2.1181-2.2539v-.7129h-.0224a2.29493 2.29493 0 0 1-1.9746 1.0351 2.81442 2.81442 0 0 1-2.98049-2.8594 2.76159 2.76159 0 0 1 2.98049-2.9316 2.199 2.199 0 0 1 1.9746 1.0957h.0224v-.9531h.9336v5.3262zm-2.9306-.5352a2.03852 2.03852 0 0 0 0-4.0762 2.03908 2.03908 0 0 0 0 4.0762zm5.3593-.6797a1.7353 1.7353 0 0 0 1.4366.752c.5859 0 1.2334-.25 1.2334-.8575 0-.5976-.5987-.7519-1.1973-.8828-1.06449-.2402-1.9736-.4668-1.9736-1.623 0-1.084 1.0527-1.6426 2.0937-1.6426A2.036 2.036 0 0 1 275.524 45.14l-.77741.5097a1.3364 1.3364 0 0 0-1.1855-.666c-.5137 0-1.1016.25-1.1016.7735 0 .4648.6699.6679 1.4121.8125.9932.1894 1.832.5488 1.832 1.6679 0 1.2637-1.1259 1.752-2.2382 1.752a2.37087 2.37087 0 0 1-2.1788-1.0371l.7422-.5723m5.5655-7.54494h.9336v4.2422h.0224a2.60528 2.60528 0 0 1 2.01171-.9512 2.9332 2.9332 0 0 1 .14459 5.8633 2.42966 2.42966 0 0 1-2.1563-1.1328h-.0224v.9922h-.9336v-9.0137zm2.9199 8.2969a2.0762 2.0762 0 1 0-1.9863-2.0743 1.95072 1.95072 0 0 0 1.9863 2.0743zm4.7861-4.1485a3.124 3.124 0 0 1 2.2266-.8574c1.6514 0 2.3457.7852 2.3457 2.3574v2.3985a6.21467 6.21467 0 0 0 .083.9668h-.8975a4.02986 4.02986 0 0 1-.0595-.836h-.0245a2.11563 2.11563 0 0 1-1.8427.9766c-1.1358 0-2.0821-.5723-2.0821-1.6563 0-1.8496 2.1534-1.955 3.5313-1.955h.35741v-.168c0-.8086-.51371-1.2266-1.38771-1.2266a2.49607 2.49607 0 0 0-1.6631.6074l-.5869-.6074zm2.7061 2.1817c-1.1856 0-1.9512.3203-1.9512 1.0722 0 .7032.5264.9649 1.2324.9649a1.59206 1.59206 0 0 0 1.65041-1.6797v-.3574zm4.1748-1.5743c0-.5136-.0469-.9531-.0469-1.3222h.8848c0 .2988.0254.6074.0254.9179h.0224a2.03735 2.03735 0 0 1 1.8682-1.0605 1.9983 1.9983 0 0 1 2.12991 2.2773V49.849h-.93361v-3.3516c0-.9297-.4073-1.5137-1.2813-1.5137-1.209 0-1.7343.8711-1.7343 2.1465v2.7188h-.9346v-4.2579m7.18081-4.7561h.934v5.889l2.547-2.455h1.328l-2.703 2.539 2.98 3.041h-1.377l-2.775-2.934v2.934h-.934v-9.014"/>
</svg>
